HIERARCHY
ROOT Hips
{
  OFFSET -1.00283 91.6471 -3.20329
  CHANNELS 6 Xposition Yposition Zposition Zrotation Xrotation Yrotation
  JOINT LeftHip
  {
    OFFSET 7.742 0 0
    CHANNELS 6 Xposition Yposition Zposition Zrotation Xrotation Yrotation
    JOINT LeftKnee
    {
      OFFSET 0 -41.6894 0
      CHANNELS 6 Xposition Yposition Zposition Zrotation Xrotation Yrotation
      JOINT LeftAnkle
      {
        OFFSET 0 -40.5157 0
        CHANNELS 6 Xposition Yposition Zposition Zrotation Xrotation Yrotation
        End Site
        {
          OFFSET 0 -7.04228 0
        }
      }
    }
  }
  JOINT RightHip
  {
    OFFSET -7.742 0 0
    CHANNELS 6 Xposition Yposition Zposition Zrotation Xrotation Yrotation
    JOINT RightKnee
    {
      OFFSET 0 -41.6894 0
      CHANNELS 6 Xposition Yposition Zposition Zrotation Xrotation Yrotation
      JOINT RightAnkle
      {
        OFFSET 0 -40.5157 0
        CHANNELS 6 Xposition Yposition Zposition Zrotation Xrotation Yrotation
        End Site
        {
          OFFSET 0 -7.04228 0
        }
      }
    }
  }
  JOINT Chest
  {
    OFFSET 0 12.9605 0
    CHANNELS 6 Xposition Yposition Zposition Zrotation Xrotation Yrotation
    JOINT Chest2
    {
      OFFSET 0 14.8294 0
      CHANNELS 6 Xposition Yposition Zposition Zrotation Xrotation Yrotation
      JOINT LeftCollar
      {
        OFFSET 2.39257 9.45743 3.97257
        CHANNELS 6 Xposition Yposition Zposition Zrotation Xrotation Yrotation
        JOINT LeftShoulder
        {
          OFFSET 13.114 0 0
          CHANNELS 6 Xposition Yposition Zposition Zrotation Xrotation Yrotation
          JOINT LeftElbow
          {
            OFFSET 0 -27.2663 0
            CHANNELS 6 Xposition Yposition Zposition Zrotation Xrotation Yrotation
            JOINT LeftWrist
            {
              OFFSET 0 -22.1651 0
              CHANNELS 6 Xposition Yposition Zposition Zrotation Xrotation Yrotation
              End Site
              {
                OFFSET 0 -16.6351 0
              }
            }
          }
        }
      }
      JOINT RightCollar
      {
        OFFSET -2.39257 9.45743 3.97257
        CHANNELS 6 Xposition Yposition Zposition Zrotation Xrotation Yrotation
        JOINT RightShoulder
        {
          OFFSET -13.6783 0 0
          CHANNELS 6 Xposition Yposition Zposition Zrotation Xrotation Yrotation
          JOINT RightElbow
          {
            OFFSET 0 -25.0091 0
            CHANNELS 6 Xposition Yposition Zposition Zrotation Xrotation Yrotation
            JOINT RightWrist
            {
              OFFSET 0 -22.1651 0
              CHANNELS 6 Xposition Yposition Zposition Zrotation Xrotation Yrotation
              End Site
              {
                OFFSET 0 -16.116 0
              }
            }
          }
        }
      }
      JOINT Neck
      {
        OFFSET 0 9.14143 0
        CHANNELS 6 Xposition Yposition Zposition Zrotation Xrotation Yrotation
        JOINT Head
        {
          OFFSET 0 11.7146 0
          CHANNELS 6 Xposition Yposition Zposition Zrotation Xrotation Yrotation
          End Site
          {
            OFFSET 0 9.34459 0
          }
        }
      }
    }
  }
}
MOTION
Frames:	4
Frame Time:	0.00833333
60.7584 22.5594 67.4449 -1.13523 -13.1985 2.82722 7.742 0 -1.6038e-014 68.9905 -61.3781 46.7842 8.01898e-015 -41.6894 -2.00475e-015 -5.33351 18.5663 17.5985 1.6038e-014 -40.5157 1.6038e-014 -5.39889 20.9178 -1.82474 -7.742 0 0 -57.464 -52.3396 -34.1852 8.01898e-015 -41.6894 1.6038e-014 3.96244 1.22217 -15.0971 8.01898e-015 -40.5157 0 14.4612 31.116 -3.75811 0 12.9605 0 0.0139765 24.043 -1.73762 0 14.8294 0 -0.993166 37.4066 -1.3569 2.39257 9.45743 3.97257 14.0267 -3.17548 -18.836 13.114 0 0 -16.3955 -48.6718 -58.235 1.6038e-014 -27.2663 -8.01898e-015 -7.3383 -5.31637 -23.8621 8.01898e-015 -22.1651 0 106.325 19.1917 -23.1722 -2.39257 9.45743 3.97257 -17.0894 -4.3075 22.0256 -13.6783 1.6038e-014 0 21.9459 -52.9102 69.1598 -8.01898e-015 -25.0091 1.6038e-014 3.60695 -4.36496 29.1916 -1.6038e-014 -22.1651 -4.00949e-015 -94.9669 22.5606 22.7211 0 9.14143 0 3.81968 44.6918 -1.63315 -8.01898e-015 11.7146 0 -15.0037 -47.9505 -2.82788 
60.7881 22.5753 67.7754 -0.94359 -12.9077 2.94946 7.742 2.00475e-015 -1.6038e-014 68.8355 -61.2492 46.1186 -4.00949e-015 -41.6894 -4.00949e-015 -5.43274 17.8575 17.6938 0 -40.5157 0 -6.84034 23.1199 -1.58353 -7.742 2.00475e-015 0 -59.1608 -52.9297 -35.0923 -8.01898e-015 -41.6894 0 4.18445 2.97434 -15.7102 -8.01898e-015 -40.5157 -8.01898e-015 14.6137 30.8916 -3.58783 8.01898e-015 12.9605 0 -0.0704681 24.0207 -1.75204 8.01898e-015 14.8294 8.01898e-015 -0.933582 37.2924 -1.41716 2.39257 9.45743 3.97257 14.0103 -3.19104 -18.9438 13.114 1.6038e-014 8.01898e-015 -16.6039 -48.344 -58.9255 0 -27.2663 4.00949e-015 -7.42048 -5.24033 -22.5471 -8.01898e-015 -22.1651 0 106.899 18.7215 -22.7737 -2.39257 9.45743 3.97257 -17.1283 -4.30708 21.981 -13.6783 1.6038e-014 0 22.377 -52.8316 69.3166 0 -25.0091 -1.6038e-014 4.17206 -3.84893 29.1757 0 -22.1651 0 -95.9508 22.3941 22.9201 -8.01898e-015 9.14143 -8.01898e-015 3.76747 44.4626 -1.59264 0 11.7146 -8.01898e-015 -15.1673 -47.9668 -2.87408 
60.8182 22.5797 68.0981 -0.761932 -12.6734 3.06313 7.742 -2.00475e-015 0 68.5902 -61.107 45.5235 4.00949e-015 -41.6894 2.00475e-015 -5.43716 17.1542 17.5581 -8.01898e-015 -40.5157 8.01898e-015 -8.33762 25.4717 -1.31216 -7.742 -2.00475e-015 0 -60.81 -53.5035 -35.8978 0 -41.6894 0 4.41116 4.73279 -16.347 8.01898e-015 -40.5157 8.01898e-015 14.8536 30.7617 -3.4178 0 12.9605 0 -0.140176 23.992 -1.7734 0 14.8294 8.01898e-015 -0.88977 37.215 -1.47413 2.39257 9.45743 3.97257 14.0017 -3.20866 -19.0551 13.114 1.6038e-014 -8.01898e-015 -16.7788 -48.0213 -59.6153 0 -27.2663 8.01898e-015 -7.48863 -5.19313 -21.3865 8.01898e-015 -22.1651 -8.01898e-015 107.436 18.34 -22.483 -2.39257 9.45743 3.97257 -17.1851 -4.31823 21.9725 -13.6783 3.20759e-014 0 22.7839 -52.7702 69.521 0 -25.0091 0 4.72315 -3.35244 29.035 1.6038e-014 -22.1651 4.00949e-015 -96.8965 22.2353 23.1144 0 9.14143 1.6038e-014 3.7271 44.2429 -1.55576 0 11.7146 0 -15.361 -47.9805 -2.92234 
60.849 22.5699 68.4195 -0.594116 -12.4737 3.15888 7.742 0 0 68.4348 -61.0345 45.1848 8.01898e-015 -41.6894 -4.00949e-015 -5.35667 16.6849 17.2581 -8.01898e-015 -40.5157 0 -9.74109 27.5194 -1.0505 -7.742 -4.00949e-015 1.6038e-014 -62.1211 -53.8841 -36.5234 0 -41.6894 -8.01898e-015 4.57072 5.96731 -16.7786 0 -40.5157 1.6038e-014 15.1726 31.0266 -3.39459 8.01898e-015 12.9605 1.6038e-014 -0.182497 23.949 -1.80392 0 14.8294 0 -0.896111 37.1561 -1.51126 2.39257 9.45743 3.97257 13.9934 -3.21807 -19.1187 13.114 1.6038e-014 0 -16.9773 -47.7012 -60.1469 -1.6038e-014 -27.2663 -4.00949e-015 -7.5329 -5.11588 -21.0807 8.01898e-015 -22.1651 8.01898e-015 107.978 18.2212 -22.5503 -2.39257 9.45743 3.97257 -17.2425 -4.33044 21.969 -13.6783 3.20759e-014 -8.01898e-015 23.1418 -52.6613 69.791 -1.6038e-014 -25.0091 1.6038e-014 5.17811 -2.98906 28.7768 -1.6038e-014 -22.1651 -4.00949e-015 -97.7376 22.1096 23.3059 1.6038e-014 9.14143 -8.01898e-015 3.70673 44.0418 -1.52526 8.01898e-015 11.7146 8.01898e-015 -15.5326 -48.022 -2.96221 
